<mxfile host="app.diagrams.net" agent="Mozilla/5.0 (Windows NT 10.0; Win64; x64) AppleWebKit/537.36 (KHTML, like Gecko) Chrome/131.0.0.0 Safari/537.36" version="24.9.1">
  <diagram name="PÃ¡gina-1" id="Jf3CER2ipXrKKhGIKlLF">
    <mxGraphModel dx="940" dy="360" grid="1" gridSize="10" guides="1" tooltips="1" connect="1" arrows="1" fold="1" page="1" pageScale="1" pageWidth="827" pageHeight="1169" math="0" shadow="0">
      <root>
        <mxCell id="0" />
        <mxCell id="1" parent="0" />
        <mxCell id="Mg945TCM2IU05SXgIQlT-5" value="Cliente" style="swimlane;childLayout=stackLayout;horizontal=1;startSize=50;horizontalStack=0;rounded=1;fontSize=14;fontStyle=0;strokeWidth=2;resizeParent=0;resizeLast=1;shadow=0;dashed=0;align=center;arcSize=4;whiteSpace=wrap;html=1;" parent="1" vertex="1">
          <mxGeometry x="40" y="23.75" width="170" height="120" as="geometry" />
        </mxCell>
        <mxCell id="Mg945TCM2IU05SXgIQlT-6" value="- Emprestimo&lt;div&gt;&lt;br&gt;&lt;/div&gt;&lt;div&gt;&lt;div&gt;+setEmprestimo(Emprestimo)&lt;/div&gt;&lt;div&gt;+fazerEmprestimo()&lt;/div&gt;&lt;/div&gt;" style="align=left;strokeColor=none;fillColor=none;spacingLeft=4;fontSize=12;verticalAlign=top;resizable=0;rotatable=0;part=1;html=1;" parent="Mg945TCM2IU05SXgIQlT-5" vertex="1">
          <mxGeometry y="50" width="170" height="70" as="geometry" />
        </mxCell>
        <mxCell id="Mg945TCM2IU05SXgIQlT-8" value="&lt;div style=&quot;font-size: 9px;&quot;&gt;&amp;lt;&amp;lt;interface&amp;gt;&amp;gt;&lt;/div&gt;Emprestimo" style="swimlane;childLayout=stackLayout;horizontal=1;startSize=50;horizontalStack=0;rounded=1;fontSize=14;fontStyle=0;strokeWidth=2;resizeParent=0;resizeLast=1;shadow=0;dashed=0;align=center;arcSize=4;whiteSpace=wrap;html=1;" parent="1" vertex="1">
          <mxGeometry x="354" y="38.75" width="120" height="90" as="geometry" />
        </mxCell>
        <mxCell id="Mg945TCM2IU05SXgIQlT-9" value="emprestar()" style="align=left;strokeColor=none;fillColor=none;spacingLeft=4;fontSize=12;verticalAlign=top;resizable=0;rotatable=0;part=1;html=1;" parent="Mg945TCM2IU05SXgIQlT-8" vertex="1">
          <mxGeometry y="50" width="120" height="40" as="geometry" />
        </mxCell>
        <mxCell id="Mg945TCM2IU05SXgIQlT-30" style="edgeStyle=orthogonalEdgeStyle;rounded=0;orthogonalLoop=1;jettySize=auto;html=1;entryX=0.5;entryY=1;entryDx=0;entryDy=0;dashed=1;endArrow=block;endFill=0;" parent="1" source="Mg945TCM2IU05SXgIQlT-21" target="Mg945TCM2IU05SXgIQlT-9" edge="1">
          <mxGeometry relative="1" as="geometry" />
        </mxCell>
        <mxCell id="Mg945TCM2IU05SXgIQlT-21" value="Comum" style="swimlane;childLayout=stackLayout;horizontal=1;startSize=50;horizontalStack=0;rounded=1;fontSize=14;fontStyle=0;strokeWidth=2;resizeParent=0;resizeLast=1;shadow=0;dashed=0;align=center;arcSize=4;whiteSpace=wrap;html=1;" parent="1" vertex="1">
          <mxGeometry x="280" y="180" width="120" height="90" as="geometry" />
        </mxCell>
        <mxCell id="Mg945TCM2IU05SXgIQlT-22" value="emprestar()" style="align=left;strokeColor=none;fillColor=none;spacingLeft=4;fontSize=12;verticalAlign=top;resizable=0;rotatable=0;part=1;html=1;" parent="Mg945TCM2IU05SXgIQlT-21" vertex="1">
          <mxGeometry y="50" width="120" height="40" as="geometry" />
        </mxCell>
        <mxCell id="Mg945TCM2IU05SXgIQlT-31" style="edgeStyle=orthogonalEdgeStyle;rounded=0;orthogonalLoop=1;jettySize=auto;html=1;entryX=0.5;entryY=1;entryDx=0;entryDy=0;dashed=1;endArrow=block;endFill=0;" parent="1" source="Mg945TCM2IU05SXgIQlT-25" target="Mg945TCM2IU05SXgIQlT-9" edge="1">
          <mxGeometry relative="1" as="geometry" />
        </mxCell>
        <mxCell id="Mg945TCM2IU05SXgIQlT-25" value="Especial" style="swimlane;childLayout=stackLayout;horizontal=1;startSize=50;horizontalStack=0;rounded=1;fontSize=14;fontStyle=0;strokeWidth=2;resizeParent=0;resizeLast=1;shadow=0;dashed=0;align=center;arcSize=4;whiteSpace=wrap;html=1;" parent="1" vertex="1">
          <mxGeometry x="430" y="180" width="120" height="90" as="geometry" />
        </mxCell>
        <mxCell id="Mg945TCM2IU05SXgIQlT-26" value="emprestar()" style="align=left;strokeColor=none;fillColor=none;spacingLeft=4;fontSize=12;verticalAlign=top;resizable=0;rotatable=0;part=1;html=1;" parent="Mg945TCM2IU05SXgIQlT-25" vertex="1">
          <mxGeometry y="50" width="120" height="40" as="geometry" />
        </mxCell>
        <mxCell id="Mg945TCM2IU05SXgIQlT-38" style="edgeStyle=orthogonalEdgeStyle;rounded=0;orthogonalLoop=1;jettySize=auto;html=1;entryX=0;entryY=0.5;entryDx=0;entryDy=0;exitX=0.999;exitY=0.139;exitDx=0;exitDy=0;exitPerimeter=0;startArrow=diamond;startFill=1;endArrow=none;endFill=0;strokeWidth=1;" parent="1" source="Mg945TCM2IU05SXgIQlT-6" target="Mg945TCM2IU05SXgIQlT-8" edge="1">
          <mxGeometry relative="1" as="geometry" />
        </mxCell>
        <mxCell id="3lf1fznHIF5qSSVO-VLG-1" value="Chef&amp;nbsp;" style="swimlane;childLayout=stackLayout;horizontal=1;startSize=50;horizontalStack=0;rounded=1;fontSize=14;fontStyle=0;strokeWidth=2;resizeParent=0;resizeLast=1;shadow=0;dashed=0;align=center;arcSize=4;whiteSpace=wrap;html=1;" parent="1" vertex="1">
          <mxGeometry x="60" y="330" width="230" height="150" as="geometry" />
        </mxCell>
        <mxCell id="t1xoR3_phOGYJb5xHYK0-2" value="" style="endArrow=none;html=1;rounded=0;entryX=1;entryY=0.25;entryDx=0;entryDy=0;exitX=0;exitY=0.5;exitDx=0;exitDy=0;" edge="1" parent="3lf1fznHIF5qSSVO-VLG-1" target="3lf1fznHIF5qSSVO-VLG-2">
          <mxGeometry width="50" height="50" relative="1" as="geometry">
            <mxPoint y="74.65999999999997" as="sourcePoint" />
            <mxPoint x="200" y="74.65999999999997" as="targetPoint" />
          </mxGeometry>
        </mxCell>
        <mxCell id="3lf1fznHIF5qSSVO-VLG-2" value="- PreparoRefeicao&lt;div&gt;&lt;br&gt;&lt;/div&gt;&lt;div&gt;&lt;div&gt;+setPreparoRefeicao(PreparoRefeicao)&lt;/div&gt;&lt;div&gt;+preparar()&lt;/div&gt;&lt;/div&gt;" style="align=left;strokeColor=none;fillColor=none;spacingLeft=4;fontSize=12;verticalAlign=top;resizable=0;rotatable=0;part=1;html=1;" parent="3lf1fznHIF5qSSVO-VLG-1" vertex="1">
          <mxGeometry y="50" width="230" height="100" as="geometry" />
        </mxCell>
        <mxCell id="3lf1fznHIF5qSSVO-VLG-3" value="&lt;div style=&quot;font-size: 9px;&quot;&gt;&amp;lt;&amp;lt;interface&amp;gt;&amp;gt;&lt;/div&gt;PreparoRefeicao&amp;nbsp;" style="swimlane;childLayout=stackLayout;horizontal=1;startSize=50;horizontalStack=0;rounded=1;fontSize=14;fontStyle=0;strokeWidth=2;resizeParent=0;resizeLast=1;shadow=0;dashed=0;align=center;arcSize=4;whiteSpace=wrap;html=1;" parent="1" vertex="1">
          <mxGeometry x="460" y="370" width="120" height="90" as="geometry" />
        </mxCell>
        <mxCell id="3lf1fznHIF5qSSVO-VLG-4" value="preparar()" style="align=left;strokeColor=none;fillColor=none;spacingLeft=4;fontSize=12;verticalAlign=top;resizable=0;rotatable=0;part=1;html=1;" parent="3lf1fznHIF5qSSVO-VLG-3" vertex="1">
          <mxGeometry y="50" width="120" height="40" as="geometry" />
        </mxCell>
        <mxCell id="3lf1fznHIF5qSSVO-VLG-5" style="edgeStyle=orthogonalEdgeStyle;rounded=0;orthogonalLoop=1;jettySize=auto;html=1;entryX=0.5;entryY=1;entryDx=0;entryDy=0;dashed=1;endArrow=block;endFill=0;" parent="1" source="3lf1fznHIF5qSSVO-VLG-6" target="3lf1fznHIF5qSSVO-VLG-4" edge="1">
          <mxGeometry relative="1" as="geometry">
            <Array as="points">
              <mxPoint x="354" y="490" />
              <mxPoint x="520" y="490" />
            </Array>
          </mxGeometry>
        </mxCell>
        <mxCell id="3lf1fznHIF5qSSVO-VLG-6" value="PrepararSalada&amp;nbsp;" style="swimlane;childLayout=stackLayout;horizontal=1;startSize=50;horizontalStack=0;rounded=1;fontSize=14;fontStyle=0;strokeWidth=2;resizeParent=0;resizeLast=1;shadow=0;dashed=0;align=center;arcSize=4;whiteSpace=wrap;html=1;" parent="1" vertex="1">
          <mxGeometry x="310" y="560" width="120" height="90" as="geometry" />
        </mxCell>
        <mxCell id="3lf1fznHIF5qSSVO-VLG-7" value="preparar()" style="align=left;strokeColor=none;fillColor=none;spacingLeft=4;fontSize=12;verticalAlign=top;resizable=0;rotatable=0;part=1;html=1;" parent="3lf1fznHIF5qSSVO-VLG-6" vertex="1">
          <mxGeometry y="50" width="120" height="40" as="geometry" />
        </mxCell>
        <mxCell id="3lf1fznHIF5qSSVO-VLG-8" style="edgeStyle=orthogonalEdgeStyle;rounded=0;orthogonalLoop=1;jettySize=auto;html=1;entryX=0.5;entryY=1;entryDx=0;entryDy=0;dashed=1;endArrow=block;endFill=0;" parent="1" source="3lf1fznHIF5qSSVO-VLG-9" target="3lf1fznHIF5qSSVO-VLG-4" edge="1">
          <mxGeometry relative="1" as="geometry" />
        </mxCell>
        <mxCell id="3lf1fznHIF5qSSVO-VLG-9" value="PrepararSopa" style="swimlane;childLayout=stackLayout;horizontal=1;startSize=50;horizontalStack=0;rounded=1;fontSize=14;fontStyle=0;strokeWidth=2;resizeParent=0;resizeLast=1;shadow=0;dashed=0;align=center;arcSize=4;whiteSpace=wrap;html=1;" parent="1" vertex="1">
          <mxGeometry x="460" y="560" width="120" height="90" as="geometry" />
        </mxCell>
        <mxCell id="3lf1fznHIF5qSSVO-VLG-10" value="preparar()" style="align=left;strokeColor=none;fillColor=none;spacingLeft=4;fontSize=12;verticalAlign=top;resizable=0;rotatable=0;part=1;html=1;" parent="3lf1fznHIF5qSSVO-VLG-9" vertex="1">
          <mxGeometry y="50" width="120" height="40" as="geometry" />
        </mxCell>
        <mxCell id="3lf1fznHIF5qSSVO-VLG-11" style="edgeStyle=orthogonalEdgeStyle;rounded=0;orthogonalLoop=1;jettySize=auto;html=1;entryX=0;entryY=0.5;entryDx=0;entryDy=0;exitX=0.999;exitY=0.139;exitDx=0;exitDy=0;exitPerimeter=0;startArrow=diamond;startFill=1;endArrow=none;endFill=0;strokeWidth=1;" parent="1" source="3lf1fznHIF5qSSVO-VLG-2" target="3lf1fznHIF5qSSVO-VLG-3" edge="1">
          <mxGeometry relative="1" as="geometry" />
        </mxCell>
        <mxCell id="3lf1fznHIF5qSSVO-VLG-14" style="edgeStyle=orthogonalEdgeStyle;rounded=0;orthogonalLoop=1;jettySize=auto;html=1;dashed=1;endArrow=block;endFill=0;exitX=0.5;exitY=0;exitDx=0;exitDy=0;entryX=0.5;entryY=1;entryDx=0;entryDy=0;" parent="1" source="3lf1fznHIF5qSSVO-VLG-12" target="3lf1fznHIF5qSSVO-VLG-4" edge="1">
          <mxGeometry relative="1" as="geometry">
            <mxPoint x="520" y="465" as="targetPoint" />
            <mxPoint x="670" y="521.25" as="sourcePoint" />
            <Array as="points">
              <mxPoint x="670" y="490" />
              <mxPoint x="520" y="490" />
            </Array>
          </mxGeometry>
        </mxCell>
        <mxCell id="3lf1fznHIF5qSSVO-VLG-12" value="PrepararSobremesa" style="swimlane;childLayout=stackLayout;horizontal=1;startSize=50;horizontalStack=0;rounded=1;fontSize=14;fontStyle=0;strokeWidth=2;resizeParent=0;resizeLast=1;shadow=0;dashed=0;align=center;arcSize=4;whiteSpace=wrap;html=1;" parent="1" vertex="1">
          <mxGeometry x="610" y="560" width="140" height="90" as="geometry" />
        </mxCell>
        <mxCell id="3lf1fznHIF5qSSVO-VLG-13" value="preparar()" style="align=left;strokeColor=none;fillColor=none;spacingLeft=4;fontSize=12;verticalAlign=top;resizable=0;rotatable=0;part=1;html=1;" parent="3lf1fznHIF5qSSVO-VLG-12" vertex="1">
          <mxGeometry y="50" width="140" height="40" as="geometry" />
        </mxCell>
      </root>
    </mxGraphModel>
  </diagram>
</mxfile>
